<?xml version="1.0" encoding="UTF-8"?>
<svg version="1.1" xmlns="http://www.w3.org/2000/svg" width="29" height="30">
<path d="M0 0 C0.72832031 0.21140625 1.45664062 0.4228125 2.20703125 0.640625 C4.9470493 1.77310181 6.21865144 2.60424089 8 5 C9.31185648 10.64277991 9.3655527 15.36346332 8 21 C5.15095454 24.41885455 2.25805724 25.83700639 -2 27 C-5.625 27.1875 -5.625 27.1875 -9 26 C-9.72832031 25.78859375 -10.45664063 25.5771875 -11.20703125 25.359375 C-13.9470493 24.22689819 -15.21865144 23.39575911 -17 21 C-18.31185648 15.35722009 -18.3655527 10.63653668 -17 5 C-12.58063447 -0.30323864 -6.56378187 -2.30947881 0 0 Z " fill="#45852F" transform="translate(19,2)"/>
<path d="M0 0 C0.78503906 0.00322266 1.57007813 0.00644531 2.37890625 0.00976562 C3.16394531 -0.00634766 3.94898438 -0.02246094 4.7578125 -0.0390625 C7.03515625 -0.04101562 7.03515625 -0.04101562 10.87890625 0.32226562 C11.53890625 1.31226562 12.19890625 2.30226563 12.87890625 3.32226562 C8.27513267 8.25488018 8.27513267 8.25488018 4.87890625 9.32226562 C0.12608766 9.06302097 -3.31559952 8.23234945 -7.12109375 5.32226562 C-7.45109375 4.33226562 -7.78109375 3.34226562 -8.12109375 2.32226562 C-5.50149751 -0.29733062 -3.57255582 0.03370336 0 0 Z " fill="#25634A" transform="translate(12.12109375,19.677734375)"/>
<path d="M0 0 C2.52588702 2.36292656 3.88820837 3.66462511 5 7 C5.66 7.66 6.32 8.32 7 9 C7.66 10.65 8.32 12.3 9 14 C3.39 14 -2.22 14 -8 14 C-3.04464286 3.82142857 -3.04464286 3.82142857 0 0 Z " fill="#8DD349" transform="translate(14,5)"/>
<path d="M0 0 C1.32 0.66 2.64 1.32 4 2 C3.01 2 2.02 2 1 2 C1 5.96 1 9.92 1 14 C1.66 12.68 2.32 11.36 3 10 C3.33 10.66 3.66 11.32 4 12 C6.45862401 12.05383848 8.9160755 12.09359038 11.375 12.125 C12.07367188 12.14175781 12.77234375 12.15851562 13.4921875 12.17578125 C15.32897486 12.19344267 17.16601963 12.10303261 19 12 C19.66 11.34 20.32 10.68 21 10 C21.33 11.32 21.66 12.64 22 14 C22 10.04 22 6.08 22 2 C21.01 1.67 20.02 1.34 19 1 C20.9375 0.4375 20.9375 0.4375 23 0 C24 1 24 1 24.09765625 4.59765625 C24.0909822 6.08596867 24.07902183 7.57426432 24.0625 9.0625 C24.05798828 9.82111328 24.05347656 10.57972656 24.04882812 11.36132812 C24.0370068 13.24091871 24.01907078 15.12046899 24 17 C23.01 17 22.02 17 21 17 C20.34 16.34 19.68 15.68 19 15 C16.25514407 14.85492305 13.61519457 14.81347577 10.875 14.875 C9.74384766 14.88853516 9.74384766 14.88853516 8.58984375 14.90234375 C6.72642746 14.9259313 4.86317407 14.96180281 3 15 C2.67 15.99 2.34 16.98 2 18 C1.01 17.67 0.02 17.34 -1 17 C-1.02684679 14.35409986 -1.04676357 11.70846904 -1.0625 9.0625 C-1.07087891 8.30775391 -1.07925781 7.55300781 -1.08789062 6.77539062 C-1.09652441 4.85005687 -1.05224333 2.92464419 -1 1 C-0.67 0.67 -0.34 0.34 0 0 Z " fill="#000000" transform="translate(3,6)"/>
<path d="M0 0 C0 0.66 0 1.32 0 2 C-0.66 2.66 -1.32 3.32 -2 4 C-2.144375 4.7425 -2.28875 5.485 -2.4375 6.25 C-3.10433551 9.51008471 -4.43682918 12.07755021 -6 15 C-6.66 15 -7.32 15 -8 15 C-8.66 16.32 -9.32 17.64 -10 19 C-10.33 19 -10.66 19 -11 19 C-11.40232313 7.69024991 -11.40232313 7.69024991 -9 3 C-5.65856521 0.36202517 -4.3457707 0 0 0 Z " fill="#4A8F32" transform="translate(14,2)"/>
<path d="M0 0 C4.29 0 8.58 0 13 0 C11.02 2.31 9.04 4.62 7 7 C1.53125 2.41015625 1.53125 2.41015625 0 1 C0 0.67 0 0.34 0 0 Z " fill="#6ABE30" transform="translate(8,20)"/>
<path d="M0 0 C1.37562854 1.28965176 2.70766393 2.62689293 4 4 C4 4.66 4 5.32 4 6 C3.34 6 2.68 6 2 6 C2 7.65 2 9.3 2 11 C-1.16115776 9.63016497 -1.9927092 9.0109362 -4 6 C-2.68 4.02 -1.36 2.04 0 0 Z " fill="#75AF3D" transform="translate(14,5)"/>
<path d="M0 0 C1.65 0 3.3 0 5 0 C4.01 0.495 4.01 0.495 3 1 C3 1.66 3 2.32 3 3 C4.65 3.33 6.3 3.66 8 4 C7.01 4.33 6.02 4.66 5 5 C4.67 5.66 4.34 6.32 4 7 C3.34 6.34 2.68 5.68 2 5 C1.34 5.66 0.68 6.32 0 7 C0 6.34 0 5.68 0 5 C-0.99 4.67 -1.98 4.34 -3 4 C-1.35 3.67 0.3 3.34 2 3 C2 2.34 2 1.68 2 1 C1.34 0.67 0.68 0.34 0 0 Z " fill="#080E03" transform="translate(12,1)"/>
<path d="M0 0 C0.99 0.33 1.98 0.66 3 1 C2 4 2 4 -1 6 C-3.1875 5.625 -3.1875 5.625 -5 5 C-3.35 3.35 -1.7 1.7 0 0 Z " fill="#2B7356" transform="translate(22,21)"/>
<path d="M0 0 C0.66 0.33 1.32 0.66 2 1 C0.68 2.32 -0.64 3.64 -2 5 C-1.67 5.66 -1.34 6.32 -1 7 C-3.31 7.33 -5.62 7.66 -8 8 C-5.33333333 5.33333333 -2.66666667 2.66666667 0 0 Z " fill="#15392B" transform="translate(20,21)"/>
<path d="M0 0 C0 0.66 0 1.32 0 2 C-1.65 2.33 -3.3 2.66 -5 3 C-5 3.66 -5 4.32 -5 5 C-6.32 5 -7.64 5 -9 5 C-9 4.34 -9 3.68 -9 3 C-5.63316085 0.56839395 -4.26649636 0 0 0 Z " fill="#205741" transform="translate(14,2)"/>
<path d="M0 0 C3.34373475 0.55728913 6.03312999 1.35173889 9 3 C9 3.66 9 4.32 9 5 C7.68 5 6.36 5 5 5 C5 4.34 5 3.68 5 3 C3.35 2.67 1.7 2.34 0 2 C0 1.34 0 0.68 0 0 Z " fill="#205741" transform="translate(15,2)"/>
</svg>
